<svg xmlns="http://www.w3.org/2000/svg" x="0px" y="0px" width="48" height="48" viewBox="0 0 192 192"
    style=" fill:#000000;">
    <g transform="">
        <g fill="none" fill-rule="nonzero" stroke="none" stroke-width="1" stroke-linecap="butt" stroke-linejoin="miter"
            stroke-miterlimit="10" stroke-dasharray="" stroke-dashoffset="0" font-family="none" font-weight="none"
            font-size="none" text-anchor="none" style="mix-blend-mode: normal">
            <path d="M0,192v-192h192v192z" fill="none"></path>
            <path
                d="M96,144c-26.50967,0 -48,-21.49033 -48,-48v0c0,-26.50967 21.49033,-48 48,-48v0c26.50967,0 48,21.49033 48,48v0c0,26.50967 -21.49033,48 -48,48z"
                fill="#fff"></path>
            <g id="Layer_1" fill="#f44">
                <g id="surface1">
                    <path
                        d="M96,158.4c-34.32,0 -62.4,-28.08 -62.4,-62.4c0,-34.32 28.08,-62.4 62.4,-62.4c34.32,0 62.4,28.08 62.4,62.4c0,34.32 -28.08,62.4 -62.4,62.4zM96,39.84c-30.888,0 -56.16,25.272 -56.16,56.16c0,30.888 25.272,56.16 56.16,56.16c30.888,0 56.16,-25.272 56.16,-56.16c0,-30.888 -25.272,-56.16 -56.16,-56.16z">
                    </path>
                </g>
            </g>
            <path
                d="M96,192c-53.01934,0 -96,-42.98066 -96,-96v0c0,-53.01934 42.98066,-96 96,-96v0c53.01934,0 96,42.98066 96,96v0c0,53.01934 -42.98066,96 -96,96z"
                fill="none"></path>
            <path
                d="M96,188.16c-50.89856,0 -92.16,-41.26144 -92.16,-92.16v0c0,-50.89856 41.26144,-92.16 92.16,-92.16v0c50.89856,0 92.16,41.26144 92.16,92.16v0c0,50.89856 -41.26144,92.16 -92.16,92.16z"
                fill="none"></path>
            <path d="" fill="none"></path>
            <path d="" fill="none"></path>
            <path d="M0,192v-192h192v192z" fill="none"></path>
            <path d="M3.84,188.16v-184.32h184.32v184.32z" fill="none"></path>
        </g>
    </g>
</svg>